<svg width="18" height="18" viewBox="0 0 18 18" fill="none" xmlns="http://www.w3.org/2000/svg">
<path d="M4.575 7.5L3 13.5V6H15.75C15.75 5.60217 15.592 5.22064 15.3107 4.93934C15.0294 4.65803 14.6478 4.5 14.25 4.5H9L7.5 3H3C2.60217 3 2.22064 3.15804 1.93934 3.43934C1.65804 3.72064 1.5 4.10217 1.5 4.5V13.5C1.5 13.8978 1.65804 14.2793 1.93934 14.5607C2.22064 14.842 2.60217 15 3 15H14.25C14.925 15 15.525 14.55 15.675 13.875L17.4 7.5H4.575ZM14.25 13.5H4.5L5.7 9H15.45L14.25 13.5Z" fill="black" fill-opacity="0.5"/>
</svg>
