<svg width="200" height="221" viewBox="0 0 200 221" fill="none" xmlns="http://www.w3.org/2000/svg">
<g opacity="0.5" clip-path="url(#clip0_5_576)">
<path d="M138.878 45.2561C125.014 43.0435 109.226 41.8629 92.7836 41.8629C77.736 41.8629 63.2385 42.8502 50.2637 44.7118C50.2667 44.5126 50.2696 44.3134 50.2785 44.1141C50.6225 32.5487 55.4766 21.5767 63.8035 13.543C72.1304 5.50938 83.2694 1.0515 94.8396 1.12218C106.41 1.19287 117.494 5.78651 125.722 13.9213C133.95 22.0561 138.67 33.0866 138.872 44.6553C138.875 44.8576 138.878 45.0568 138.878 45.2561Z" fill="#C3C3C3"/>
<g opacity="0.1">
<path opacity="0.1" d="M100.382 1.10566C94.2283 0.274456 87.9685 0.745558 82.0084 2.48843C76.0484 4.23131 70.521 7.20707 65.7846 11.2228C61.0482 15.2386 57.2084 20.2048 54.5142 25.7995C51.8199 31.3943 50.3312 37.4927 50.1447 43.6996C50.1357 43.8988 50.1328 44.098 50.1299 44.2973C53.9845 43.7442 57.9763 43.2703 62.0743 42.8745C62.5755 32.5341 66.681 22.6955 73.6784 15.0659C80.6758 7.43632 90.1235 2.49721 100.382 1.10566V1.10566Z" fill="white"/>
</g>
<path d="M158.262 48.7712C151.88 47.0411 145.407 45.667 138.872 44.6554C128.162 42.9957 117.365 41.9581 106.535 41.5477C102.023 41.3633 97.4289 41.2682 92.7838 41.2682C89.1022 41.2682 85.4502 41.3276 81.849 41.4466C71.2847 41.7587 60.7455 42.6492 50.2786 44.1141C42.5306 45.181 34.8576 46.7365 27.3057 48.7712C9.69764 53.6393 0 60.1639 0 67.1406C0 74.1172 9.69765 80.6418 27.3057 85.51C39.6888 88.9358 54.9565 91.2703 71.5923 92.3409C78.4588 92.7869 85.5574 93.013 92.7838 93.013C100.034 93.013 107.156 92.784 114.044 92.3379C129.184 91.3595 143.19 89.3343 154.913 86.3902C154.976 86.3724 155.035 86.3575 155.098 86.3426C155.889 86.1464 156.668 85.9412 157.438 85.736C157.715 85.6586 157.988 85.5843 158.262 85.51C158.277 85.5037 158.293 85.4987 158.309 85.4951C158.571 85.4237 158.83 85.3494 159.088 85.278C159.606 85.1293 160.117 84.9836 160.62 84.8319C160.644 84.826 160.665 84.82 160.685 84.8141C161.123 84.6832 161.551 84.5524 161.976 84.4215C162.324 84.3115 162.669 84.2044 163.011 84.0944C163.261 84.0141 163.508 83.9338 163.752 83.8535C163.93 83.7941 164.105 83.7376 164.278 83.6781C164.513 83.6008 164.748 83.5205 164.98 83.4402C165.078 83.4075 165.176 83.3747 165.271 83.3391C165.494 83.2647 165.711 83.1874 165.928 83.1101C166.163 83.0268 166.398 82.9406 166.63 82.8573C166.824 82.7889 167.017 82.7175 167.207 82.6462C167.368 82.5837 167.525 82.5242 167.686 82.4647C168.123 82.3012 168.551 82.1317 168.974 81.9651C169.185 81.8789 169.396 81.7956 169.604 81.7094C169.809 81.6261 170.017 81.5399 170.22 81.4536C170.553 81.3139 170.88 81.1741 171.201 81.0343C171.356 80.963 171.513 80.8946 171.665 80.8292C171.781 80.7756 171.894 80.7251 172.01 80.6715C172.093 80.6359 172.176 80.5972 172.257 80.5585C172.557 80.4217 172.854 80.282 173.146 80.1422C174.264 79.6069 175.308 79.0597 176.277 78.5006C182.359 75.0183 185.568 71.1553 185.568 67.1406C185.568 60.1639 175.87 53.6393 158.262 48.7712ZM158.101 84.939C145.703 88.3678 130.394 90.7023 113.714 91.7639C106.93 92.1952 99.9181 92.4182 92.7838 92.4182C85.6733 92.4182 78.6848 92.1981 71.9223 91.7669C55.2152 90.7082 39.8821 88.3738 27.4663 84.939C10.1378 80.1452 0.594768 73.8257 0.594768 67.1406C0.595736 66.5499 0.669673 65.9615 0.814902 65.389C2.33144 59.358 11.6604 53.7137 27.4663 49.3421C34.9612 47.3233 42.5753 45.7768 50.2638 44.7119C60.7937 43.2387 71.3965 42.3452 82.0244 42.0354C85.5693 41.9194 89.1558 41.8619 92.7838 41.8629C97.3665 41.8629 101.899 41.9551 106.353 42.1335C117.247 42.5403 128.107 43.5829 138.878 45.2561C145.356 46.2632 151.774 47.6273 158.101 49.3421C173.904 53.7137 183.23 59.355 184.75 65.383C184.897 65.9572 184.972 66.5477 184.973 67.1406C184.973 73.8257 175.43 80.1452 158.101 84.939V84.939Z" fill="#3F3D56"/>
<path d="M185.398 67.4112C185.398 71.3842 182.124 75.1431 176.277 78.5006C175.305 79.0597 174.258 79.6069 173.146 80.1422C172.854 80.2819 172.557 80.4217 172.257 80.5585C172.176 80.5972 172.093 80.6358 172.01 80.6715C171.894 80.725 171.781 80.7756 171.665 80.8291C171.513 80.8945 171.355 80.9629 171.201 81.0343C170.88 81.1741 170.553 81.3138 170.22 81.4536C170.017 81.5398 169.809 81.6261 169.604 81.7094C169.396 81.7956 169.185 81.8789 168.974 81.9651C168.551 82.1316 168.123 82.3011 167.686 82.4647C167.525 82.5242 167.368 82.5837 167.207 82.6461C167.017 82.7175 166.823 82.7889 166.63 82.8573C166.398 82.9405 166.163 83.0268 165.928 83.11C165.711 83.1874 165.494 83.2647 165.271 83.339C165.176 83.3747 165.078 83.4074 164.98 83.4401C164.748 83.5204 164.513 83.6007 164.278 83.678C164.105 83.7375 163.93 83.794 163.751 83.8535C163.507 83.9338 163.261 84.0141 163.011 84.0944C162.669 84.2044 162.324 84.3115 161.976 84.4215C161.551 84.5523 161.122 84.6832 160.685 84.814C160.664 84.82 160.644 84.8259 160.62 84.8319C160.117 84.9836 159.606 85.1293 159.088 85.278C158.83 85.3493 158.571 85.4237 158.309 85.4951C158.293 85.4986 158.277 85.5036 158.262 85.5099C157.988 85.5843 157.714 85.6586 157.438 85.7359C156.671 85.9382 155.889 86.1433 155.098 86.3426C155.035 86.3575 154.976 86.3723 154.913 86.3902C143.508 89.2391 129.517 91.3149 114.032 92.317C107.249 92.7542 100.177 92.9862 92.9117 92.9862C85.5812 92.9862 78.4498 92.7512 71.613 92.3051C30.8 89.6436 0.425293 79.5087 0.425293 67.4111C0.428506 66.675 0.54071 65.9435 0.758252 65.2402C0.776113 65.2908 0.793971 65.3384 0.814883 65.3889C5.05841 76.5349 35.1746 85.5426 74.2508 87.7403C80.2371 88.0793 86.4376 88.2548 92.7837 88.2548C99.1567 88.2548 105.381 88.0763 111.391 87.7373C150.434 85.5307 180.521 76.52 184.75 65.383C184.821 65.2045 184.884 65.0261 184.937 64.8477C185.238 65.6689 185.394 66.5364 185.398 67.4112V67.4112Z" fill="#3F3D56"/>
<path d="M27.2609 64.2101C22.3116 64.2101 17.0515 63.1453 17.0515 61.1718C17.0515 59.1983 22.3116 58.1335 27.2609 58.1335C32.2102 58.1335 37.4703 59.1983 37.4703 61.1718C37.4703 63.1453 32.2102 64.2101 27.2609 64.2101ZM27.2609 58.7283C21.5949 58.7283 17.6463 60.0161 17.6463 61.1718C17.6463 62.3275 21.5949 63.6153 27.2609 63.6153C32.927 63.6153 36.8755 62.3275 36.8755 61.1718C36.8755 60.0161 32.927 58.7283 27.2609 58.7283V58.7283Z" fill="#3F3D56"/>
<path d="M48.3751 78.1871C43.4259 78.1871 38.1658 77.1223 38.1658 75.1488C38.1658 73.1753 43.4259 72.1105 48.3751 72.1105C53.3244 72.1105 58.5846 73.1753 58.5846 75.1488C58.5846 77.1223 53.3244 78.1871 48.3751 78.1871ZM48.3751 72.7053C42.7091 72.7053 38.7605 73.9931 38.7605 75.1488C38.7605 76.3045 42.7091 77.5924 48.3751 77.5924C54.0411 77.5924 57.9898 76.3045 57.9898 75.1488C57.9898 73.9931 54.0412 72.7053 48.3751 72.7053V72.7053Z" fill="#3F3D56"/>
<path d="M158.11 64.2101C153.161 64.2101 147.9 63.1453 147.9 61.1718C147.9 59.1983 153.161 58.1335 158.11 58.1335C163.059 58.1335 168.319 59.1983 168.319 61.1718C168.319 63.1453 163.059 64.2101 158.11 64.2101ZM158.11 58.7283C152.444 58.7283 148.495 60.0161 148.495 61.1718C148.495 62.3275 152.444 63.6153 158.11 63.6153C163.776 63.6153 167.724 62.3275 167.724 61.1718C167.724 60.0161 163.776 58.7283 158.11 58.7283V58.7283Z" fill="#3F3D56"/>
<path d="M136.995 78.1871C132.046 78.1871 126.786 77.1223 126.786 75.1488C126.786 73.1753 132.046 72.1105 136.995 72.1105C141.945 72.1105 147.205 73.1753 147.205 75.1488C147.205 77.1223 141.945 78.1871 136.995 78.1871ZM136.995 72.7053C131.329 72.7053 127.381 73.9931 127.381 75.1488C127.381 76.3045 131.329 77.5924 136.995 77.5924C142.662 77.5924 146.61 76.3045 146.61 75.1488C146.61 73.9931 142.662 72.7053 136.995 72.7053V72.7053Z" fill="#3F3D56"/>
<path d="M92.6854 84.7296C87.7362 84.7296 82.4761 83.6648 82.4761 81.6913C82.4761 79.7178 87.7362 78.653 92.6854 78.653C97.6347 78.653 102.895 79.7178 102.895 81.6913C102.895 83.6648 97.6347 84.7296 92.6854 84.7296ZM92.6854 79.2478C87.0194 79.2478 83.0708 80.5356 83.0708 81.6913C83.0708 82.847 87.0194 84.1348 92.6854 84.1348C98.3515 84.1348 102.3 82.847 102.3 81.6913C102.3 80.5356 98.3515 79.2478 92.6854 79.2478V79.2478Z" fill="#3F3D56"/>
<path d="M100.212 147.233C107.112 147.233 112.706 141.639 112.706 134.739C112.706 127.839 107.112 122.245 100.212 122.245C93.3117 122.245 87.718 127.839 87.718 134.739C87.718 141.639 93.3117 147.233 100.212 147.233Z" fill="#2F2E41"/>
<path d="M95.4607 142.947L89.3801 145.992L91.0797 149.386L97.1603 146.341L95.4607 142.947Z" fill="#2F2E41"/>
<path d="M91.8815 149.042C92.2421 148.495 91.3521 147.272 89.8937 146.311C88.4354 145.349 86.9608 145.013 86.6002 145.56C86.2396 146.107 87.1295 147.329 88.5879 148.291C90.0463 149.253 91.5209 149.589 91.8815 149.042Z" fill="#2F2E41"/>
<path d="M104.963 142.947L103.263 146.341L109.344 149.386L111.043 145.993L104.963 142.947Z" fill="#2F2E41"/>
<path d="M111.836 148.291C113.294 147.329 114.184 146.107 113.823 145.56C113.463 145.013 111.988 145.349 110.53 146.311C109.071 147.272 108.181 148.495 108.542 149.042C108.903 149.589 110.377 149.253 111.836 148.291Z" fill="#2F2E41"/>
<path d="M99.3372 135.953C101.695 135.953 103.607 134.041 103.607 131.683C103.607 129.325 101.695 127.413 99.3372 127.413C96.9789 127.413 95.0671 129.325 95.0671 131.683C95.0671 134.041 96.9789 135.953 99.3372 135.953Z" fill="white"/>
<path d="M100.376 130.864C100.929 130.311 100.926 129.41 100.369 128.853C99.8111 128.295 98.9105 128.292 98.357 128.846C97.8035 129.399 97.8066 130.3 98.3641 130.857C98.9215 131.415 99.8222 131.418 100.376 130.864Z" fill="#3F3D56"/>
<path d="M110.068 121.147C110.255 116.522 106.269 112.604 101.164 112.397C96.0583 112.189 91.7673 115.771 91.5794 120.396C91.3915 125.021 94.9404 126.072 100.046 126.28C105.151 126.487 109.88 125.772 110.068 121.147Z" fill="#C3C3C3"/>
<path d="M117.269 141.281C118.091 140.576 116.936 137.882 114.688 135.264C112.441 132.646 109.953 131.096 109.131 131.801C108.31 132.507 109.465 135.201 111.712 137.819C113.96 140.436 116.448 141.987 117.269 141.281Z" fill="#2F2E41"/>
<path d="M88.7462 137.819C90.9935 135.201 92.1491 132.507 91.3273 131.801C90.5055 131.096 88.0175 132.646 85.7702 135.264C83.523 137.882 82.3674 140.576 83.1892 141.281C84.011 141.987 86.4989 140.436 88.7462 137.819Z" fill="#2F2E41"/>
<path d="M103.643 139.663C103.778 140.405 103.613 141.171 103.183 141.792C102.754 142.413 102.095 142.838 101.352 142.973C100.61 143.108 99.8435 142.943 99.2227 142.513C98.6018 142.084 98.1771 141.425 98.0419 140.682L98.0409 140.677C97.7608 139.13 98.9569 138.582 100.504 138.302C102.051 138.022 103.363 138.116 103.643 139.663Z" fill="white"/>
<path d="M79.104 148.029C78.9463 148.029 78.795 147.966 78.6835 147.855C78.572 147.743 78.5093 147.592 78.5093 147.434V112.343C78.5093 112.185 78.5719 112.034 78.6835 111.922C78.795 111.811 78.9463 111.748 79.104 111.748C79.2618 111.748 79.4131 111.811 79.5246 111.922C79.6361 112.034 79.6988 112.185 79.6988 112.343V147.434C79.6988 147.592 79.6361 147.743 79.5246 147.855C79.4131 147.966 79.2618 148.029 79.104 148.029Z" fill="#CCCCCC"/>
<path d="M70.1827 179.552C70.0249 179.552 69.8736 179.489 69.7621 179.377C69.6506 179.266 69.5879 179.115 69.5879 178.957V153.382C69.5879 153.224 69.6506 153.073 69.7621 152.961C69.8736 152.85 70.0249 152.787 70.1827 152.787C70.3404 152.787 70.4917 152.85 70.6032 152.961C70.7148 153.073 70.7774 153.224 70.7774 153.382V178.957C70.7774 179.115 70.7148 179.266 70.6032 179.377C70.4917 179.489 70.3404 179.552 70.1827 179.552V179.552Z" fill="#CCCCCC"/>
<path d="M93.0811 158.437C92.9234 158.437 92.7721 158.375 92.6605 158.263C92.549 158.152 92.4863 158 92.4863 157.843V122.751C92.4863 122.594 92.549 122.442 92.6605 122.331C92.7721 122.219 92.9234 122.157 93.0811 122.157C93.2388 122.157 93.3901 122.219 93.5016 122.331C93.6132 122.442 93.6759 122.594 93.6759 122.751V157.843C93.6758 158 93.6132 158.152 93.5016 158.263C93.3901 158.375 93.2388 158.437 93.0811 158.437Z" fill="#CCCCCC"/>
<path d="M84.4571 183.715C84.2993 183.715 84.1481 183.652 84.0365 183.541C83.925 183.429 83.8623 183.278 83.8623 183.12V168.846C83.8623 168.688 83.925 168.537 84.0365 168.425C84.148 168.314 84.2993 168.251 84.4571 168.251C84.6148 168.251 84.7661 168.314 84.8776 168.425C84.9892 168.537 85.0518 168.688 85.0518 168.846V183.12C85.0518 183.278 84.9892 183.429 84.8776 183.541C84.7661 183.652 84.6148 183.715 84.4571 183.715V183.715Z" fill="#CCCCCC"/>
<path d="M96.6497 110.559C96.492 110.559 96.3407 110.496 96.2291 110.384C96.1176 110.273 96.0549 110.122 96.0549 109.964V95.6894C96.0549 95.5316 96.1176 95.3803 96.2291 95.2688C96.3407 95.1573 96.492 95.0946 96.6497 95.0946C96.8074 95.0946 96.9587 95.1573 97.0703 95.2688C97.1818 95.3803 97.2445 95.5316 97.2445 95.6894V109.964C97.2445 110.122 97.1818 110.273 97.0703 110.384C96.9587 110.496 96.8074 110.559 96.6497 110.559V110.559Z" fill="#CCCCCC"/>
<path d="M66.9114 116.804C66.7537 116.804 66.6024 116.741 66.4909 116.629C66.3793 116.518 66.3167 116.367 66.3167 116.209V101.934C66.3167 101.777 66.3793 101.625 66.4909 101.514C66.6024 101.402 66.7537 101.34 66.9114 101.34C67.0692 101.34 67.2204 101.402 67.332 101.514C67.4435 101.625 67.5062 101.777 67.5062 101.934V116.209C67.5062 116.367 67.4435 116.518 67.332 116.629C67.2204 116.741 67.0692 116.804 66.9114 116.804V116.804Z" fill="#CCCCCC"/>
<path d="M118.656 118.291C118.498 118.291 118.347 118.228 118.235 118.116C118.124 118.005 118.061 117.854 118.061 117.696V103.421C118.061 103.264 118.124 103.112 118.235 103.001C118.347 102.889 118.498 102.827 118.656 102.827C118.814 102.827 118.965 102.889 119.077 103.001C119.188 103.112 119.251 103.264 119.251 103.421V117.696C119.251 117.854 119.188 118.005 119.077 118.116C118.965 118.228 118.814 118.291 118.656 118.291Z" fill="#CCCCCC"/>
<path d="M117.467 162.898C117.309 162.898 117.158 162.836 117.046 162.724C116.934 162.612 116.872 162.461 116.872 162.303V145.055C116.872 144.897 116.934 144.746 117.046 144.635C117.158 144.523 117.309 144.46 117.467 144.46C117.624 144.46 117.776 144.523 117.887 144.635C117.999 144.746 118.061 144.897 118.061 145.055V162.303C118.061 162.461 117.999 162.612 117.887 162.724C117.776 162.836 117.624 162.898 117.467 162.898Z" fill="#CCCCCC"/>
<path d="M105.571 178.065C105.414 178.065 105.262 178.002 105.151 177.891C105.039 177.779 104.977 177.628 104.977 177.47V151.895C104.977 151.737 105.039 151.586 105.151 151.474C105.262 151.363 105.414 151.3 105.571 151.3C105.729 151.3 105.88 151.363 105.992 151.474C106.103 151.586 106.166 151.737 106.166 151.895V177.47C106.166 177.628 106.103 177.779 105.992 177.891C105.88 178.002 105.729 178.065 105.571 178.065Z" fill="#CCCCCC"/>
<path d="M107.95 134.349C107.792 134.349 107.641 134.287 107.53 134.175C107.418 134.064 107.355 133.912 107.355 133.754V98.6632C107.355 98.5055 107.418 98.3542 107.53 98.2427C107.641 98.1311 107.792 98.0685 107.95 98.0685C108.108 98.0685 108.259 98.1311 108.371 98.2427C108.482 98.3542 108.545 98.5055 108.545 98.6632V133.754C108.545 133.912 108.482 134.064 108.371 134.175C108.259 134.287 108.108 134.349 107.95 134.349Z" fill="#CCCCCC"/>
<path d="M180.867 209.021C181.718 208.309 180.568 205.533 178.297 202.821C176.027 200.109 173.496 198.489 172.645 199.202C171.794 199.914 172.944 202.69 175.215 205.402C177.485 208.114 180.016 209.734 180.867 209.021Z" fill="#2F2E41"/>
<path d="M175.284 205.938C177.521 199.227 173.894 191.974 167.184 189.737C160.473 187.501 153.22 191.127 150.983 197.838C148.746 204.548 152.373 211.801 159.083 214.038C165.794 216.275 173.047 212.648 175.284 205.938Z" fill="#2F2E41"/>
<path d="M168.554 211.939H164.664V218.91H168.554V211.939Z" fill="#2F2E41"/>
<path d="M160.773 211.939H156.882V218.91H160.773V211.939Z" fill="#2F2E41"/>
<path d="M165.312 220.207C167.103 220.207 168.554 219.663 168.554 218.991C168.554 218.32 167.103 217.775 165.312 217.775C163.521 217.775 162.07 218.32 162.07 218.991C162.07 219.663 163.521 220.207 165.312 220.207Z" fill="#2F2E41"/>
<path d="M157.53 220.045C159.321 220.045 160.773 219.501 160.773 218.829C160.773 218.158 159.321 217.613 157.53 217.613C155.74 217.613 154.288 218.158 154.288 218.829C154.288 219.501 155.74 220.045 157.53 220.045Z" fill="#2F2E41"/>
<path d="M159.112 185.788C160.256 181.183 165.304 178.472 170.387 179.735C175.471 180.997 178.665 185.754 177.521 190.359C176.377 194.965 172.583 194.98 167.5 193.718C162.416 192.455 157.968 190.394 159.112 185.788Z" fill="#CCCCCC"/>
<path d="M154.494 198.689C154.97 197.686 152.765 195.644 149.569 194.129C146.374 192.613 143.398 192.198 142.922 193.201C142.446 194.204 144.651 196.246 147.847 197.761C151.042 199.277 154.018 199.692 154.494 198.689Z" fill="#2F2E41"/>
<path d="M161.219 203.455C163.577 203.455 165.489 201.543 165.489 199.185C165.489 196.827 163.577 194.915 161.219 194.915C158.86 194.915 156.949 196.827 156.949 199.185C156.949 201.543 158.86 203.455 161.219 203.455Z" fill="white"/>
<path d="M159.464 199.078C160.25 199.078 160.887 198.441 160.887 197.655C160.887 196.869 160.25 196.231 159.464 196.231C158.678 196.231 158.041 196.869 158.041 197.655C158.041 198.441 158.678 199.078 159.464 199.078Z" fill="#3F3D56"/>
<path d="M161.182 209.885C162.167 209.885 162.966 209.086 162.966 208.1C162.966 207.115 162.167 206.316 161.182 206.316C160.197 206.316 159.398 207.115 159.398 208.1C159.398 209.086 160.197 209.885 161.182 209.885Z" fill="white"/>
<path d="M199.703 220.293H129.52C129.441 220.293 129.366 220.262 129.31 220.206C129.254 220.15 129.223 220.075 129.223 219.996C129.223 219.917 129.254 219.841 129.31 219.786C129.366 219.73 129.441 219.698 129.52 219.698H199.703C199.782 219.698 199.857 219.73 199.913 219.786C199.969 219.841 200 219.917 200 219.996C200 220.075 199.969 220.15 199.913 220.206C199.857 220.262 199.782 220.293 199.703 220.293Z" fill="#3F3D56"/>
</g>
<defs>
<clipPath id="clip0_5_576">
<rect width="200" height="219.586" fill="white" transform="translate(0 0.706772)"/>
</clipPath>
</defs>
</svg>
